<svg width="36" height="42" viewBox="0 0 36 42" fill="none" xmlns="http://www.w3.org/2000/svg">
<path d="M11.25 7.8782V10.5032H32.625V15.6995L30.1289 24.9407H10.5421L7.72959 1.3125H1.125V3.9375H5.77041L8.58291 27.5657H31.779L34.875 16.1032V7.8782H11.25ZM12.4442 30.2157C11.2511 30.2173 10.1073 30.7709 9.26371 31.7552C8.42009 32.7394 7.94555 34.0738 7.94419 35.4657C7.94419 36.8581 8.41829 38.1935 9.26221 39.178C10.1061 40.1626 11.2507 40.7157 12.4442 40.7157C13.6377 40.7157 14.7823 40.1626 15.6262 39.178C16.4701 38.1935 16.9442 36.8581 16.9442 35.4657C16.9429 34.0738 16.4684 32.7393 15.6247 31.7551C14.7811 30.7708 13.6373 30.2172 12.4442 30.2157ZM12.4442 38.0907C11.9992 38.0907 11.5642 37.9368 11.1942 37.6483C10.8241 37.3599 10.5358 36.9499 10.3655 36.4703C10.1952 35.9906 10.1506 35.4628 10.2374 34.9536C10.3242 34.4444 10.5385 33.9767 10.8532 33.6096C11.1679 33.2425 11.5688 32.9924 12.0052 32.8912C12.4417 32.7899 12.8941 32.8419 13.3052 33.0405C13.7164 33.2392 14.0678 33.5757 14.315 34.0073C14.5622 34.439 14.6942 34.9465 14.6942 35.4657C14.6934 36.1616 14.4562 36.8288 14.0344 37.3209C13.6126 37.813 13.0407 38.0899 12.4442 38.0907ZM28.1942 30.2157C27.0011 30.2173 25.8573 30.7709 25.0137 31.7552C24.1701 32.7394 23.6955 34.0738 23.6942 35.4657C23.6942 36.8581 24.1683 38.1935 25.0122 39.178C25.8561 40.1626 27.0007 40.7157 28.1942 40.7157C29.3877 40.7157 30.5323 40.1626 31.3762 39.178C32.2201 38.1935 32.6942 36.8581 32.6942 35.4657C32.6929 34.0738 32.2184 32.7393 31.3747 31.7551C30.5311 30.7708 29.3873 30.2172 28.1942 30.2157ZM28.1942 38.0907C27.7492 38.0907 27.3142 37.9368 26.9442 37.6483C26.5741 37.3599 26.2858 36.9499 26.1155 36.4703C25.9452 35.9906 25.9006 35.4628 25.9874 34.9536C26.0742 34.4444 26.2885 33.9767 26.6032 33.6096C26.9179 33.2425 27.3188 32.9924 27.7552 32.8912C28.1917 32.7899 28.6441 32.8419 29.0552 33.0405C29.4664 33.2392 29.8178 33.5757 30.065 34.0073C30.3122 34.439 30.4442 34.9465 30.4442 35.4657C30.4434 36.1616 30.2062 36.8288 29.7844 37.3209C29.3626 37.813 28.7907 38.0899 28.1942 38.0907Z" fill="black"/>
</svg>
