<svg width="100" height="20" viewBox="0 0 100 20" fill="none" xmlns="http://www.w3.org/2000/svg">
<path d="M9.36392 1.83368C9.59934 1.26767 10.4012 1.26768 10.6366 1.83369L12.5729 6.48918C12.6722 6.7278 12.8966 6.89083 13.1542 6.91149L18.1802 7.31441C18.7913 7.36341 19.039 8.12597 18.5734 8.52475L14.7442 11.805C14.5479 11.9731 14.4622 12.2369 14.5222 12.4882L15.6921 17.3927C15.8343 17.9891 15.1856 18.4603 14.6625 18.1408L10.3595 15.5126C10.139 15.3779 9.86159 15.3779 9.64109 15.5126L5.33809 18.1408C4.81494 18.4603 4.16626 17.9891 4.30849 17.3927L5.4784 12.4882C5.53837 12.2369 5.45265 11.9731 5.25639 11.805L1.4271 8.52475C0.961545 8.12597 1.20932 7.36341 1.82038 7.31441L6.84638 6.91149C7.10398 6.89083 7.32838 6.7278 7.42763 6.48918L9.36392 1.83368Z" fill="url(#paint0_linear_15_655)"/>
<path d="M29.3639 1.83368C29.5993 1.26767 30.4012 1.26768 30.6366 1.83369L32.5729 6.48918C32.6722 6.7278 32.8966 6.89083 33.1542 6.91149L38.1802 7.31441C38.7913 7.36341 39.039 8.12597 38.5734 8.52475L34.7442 11.805C34.5479 11.9731 34.4622 12.2369 34.5222 12.4882L35.6921 17.3927C35.8343 17.9891 35.1856 18.4603 34.6625 18.1408L30.3595 15.5126C30.139 15.3779 29.8616 15.3779 29.6411 15.5126L25.3381 18.1408C24.8149 18.4603 24.1663 17.9891 24.3085 17.3927L25.4784 12.4882C25.5384 12.2369 25.4527 11.9731 25.2564 11.805L21.4271 8.52475C20.9615 8.12597 21.2093 7.36341 21.8204 7.31441L26.8464 6.91149C27.104 6.89083 27.3284 6.7278 27.4276 6.48918L29.3639 1.83368Z" fill="url(#paint1_linear_15_655)"/>
<path d="M49.3639 1.83368C49.5993 1.26767 50.4012 1.26768 50.6366 1.83369L52.5729 6.48918C52.6722 6.7278 52.8966 6.89083 53.1542 6.91149L58.1802 7.31441C58.7913 7.36341 59.039 8.12597 58.5734 8.52475L54.7442 11.805C54.5479 11.9731 54.4622 12.2369 54.5222 12.4882L55.6921 17.3927C55.8343 17.9891 55.1856 18.4603 54.6625 18.1408L50.3595 15.5126C50.139 15.3779 49.8616 15.3779 49.6411 15.5126L45.3381 18.1408C44.8149 18.4603 44.1663 17.9891 44.3085 17.3927L45.4784 12.4882C45.5384 12.2369 45.4527 11.9731 45.2564 11.805L41.4271 8.52475C40.9615 8.12597 41.2093 7.36341 41.8204 7.31441L46.8464 6.91149C47.104 6.89083 47.3284 6.7278 47.4276 6.48918L49.3639 1.83368Z" fill="url(#paint2_linear_15_655)"/>
<path d="M69.3639 1.83368C69.5993 1.26767 70.4012 1.26768 70.6366 1.83369L72.5729 6.48918C72.6722 6.7278 72.8966 6.89083 73.1542 6.91149L78.1802 7.31441C78.7913 7.36341 79.039 8.12597 78.5734 8.52475L74.7442 11.805C74.5479 11.9731 74.4622 12.2369 74.5222 12.4882L75.6921 17.3927C75.8343 17.9891 75.1856 18.4603 74.6625 18.1408L70.3595 15.5126C70.139 15.3779 69.8616 15.3779 69.6411 15.5126L65.3381 18.1408C64.8149 18.4603 64.1663 17.9891 64.3085 17.3927L65.4784 12.4882C65.5384 12.2369 65.4527 11.9731 65.2564 11.805L61.4271 8.52475C60.9615 8.12597 61.2093 7.36341 61.8204 7.31441L66.8464 6.91149C67.104 6.89083 67.3284 6.7278 67.4276 6.48918L69.3639 1.83368Z" fill="url(#paint3_linear_15_655)"/>
<path d="M89.3639 1.83368C89.5993 1.26767 90.4012 1.26768 90.6366 1.83369L92.5729 6.48918C92.6722 6.7278 92.8966 6.89083 93.1542 6.91149L98.1802 7.31441C98.7913 7.36341 99.039 8.12597 98.5734 8.52475L94.7442 11.805C94.5479 11.9731 94.4622 12.2369 94.5222 12.4882L95.6921 17.3927C95.8343 17.9891 95.1856 18.4603 94.6625 18.1408L90.3595 15.5126C90.139 15.3779 89.8616 15.3779 89.6411 15.5126L85.3381 18.1408C84.8149 18.4603 84.1663 17.9891 84.3085 17.3927L85.4784 12.4882C85.5384 12.2369 85.4527 11.9731 85.2564 11.805L81.4271 8.52475C80.9615 8.12597 81.2093 7.36341 81.8204 7.31441L86.8464 6.91149C87.104 6.89083 87.3284 6.7278 87.4276 6.48918L89.3639 1.83368Z" fill="url(#paint4_linear_15_655)"/>
<defs>
<linearGradient id="paint0_linear_15_655" x1="1.1853" y1="1.40918" x2="18.8152" y2="1.40918" gradientUnits="userSpaceOnUse">
<stop offset="0.4999" stop-color="#F3C63F"/>
<stop offset="0.5" stop-color="#F3C63F"/>
</linearGradient>
<linearGradient id="paint1_linear_15_655" x1="21.1853" y1="1.40918" x2="38.8152" y2="1.40918" gradientUnits="userSpaceOnUse">
<stop offset="0.4999" stop-color="#F3C63F"/>
<stop offset="0.5" stop-color="#F3C63F"/>
</linearGradient>
<linearGradient id="paint2_linear_15_655" x1="41.1853" y1="1.40918" x2="58.8152" y2="1.40918" gradientUnits="userSpaceOnUse">
<stop offset="0.4999" stop-color="#F3C63F"/>
<stop offset="0.5" stop-color="#F3C63F"/>
</linearGradient>
<linearGradient id="paint3_linear_15_655" x1="61.1853" y1="1.40918" x2="78.8152" y2="1.40918" gradientUnits="userSpaceOnUse">
<stop offset="0.4999" stop-color="#F3C63F"/>
<stop offset="0.5" stop-color="#F3C63F"/>
</linearGradient>
<linearGradient id="paint4_linear_15_655" x1="81.1853" y1="1.40918" x2="98.8152" y2="1.40918" gradientUnits="userSpaceOnUse">
<stop offset="0.4999" stop-color="#F3C63F"/>
<stop offset="0.5" stop-color="#F3C63F"/>
</linearGradient>
</defs>
</svg>
